<svg width="500" height="500" viewBox="0 0 500 500" fill="none" xmlns="http://www.w3.org/2000/svg">
<path d="M250 500C388.071 500 500 388.071 500 250C500 111.929 388.071 0 250 0C111.929 0 0 111.929 0 250C0 388.071 111.929 500 250 500Z" fill="#12181B"/>
<g clip-path="url(#clip0_2751_124)">
<path fill-rule="evenodd" clip-rule="evenodd" d="M342.559 353.12L398.729 179.887C403.136 166.305 395.702 151.688 382.148 147.279C368.594 142.869 354.008 150.312 349.607 163.894L293.438 337.12C289.031 350.702 296.464 365.32 310.018 369.729C323.572 374.145 338.159 366.702 342.559 353.12Z" fill="url(#paint0_linear_2751_124)"/>
<path fill-rule="evenodd" clip-rule="evenodd" d="M342.559 353.12L398.729 179.887C403.136 166.305 395.702 151.688 382.148 147.279C368.594 142.869 354.008 150.312 349.607 163.894L293.438 337.12C289.031 350.702 296.464 365.32 310.018 369.729C323.572 374.145 338.159 366.702 342.559 353.12Z" fill="url(#paint1_linear_2751_124)"/>
<path fill-rule="evenodd" clip-rule="evenodd" d="M342.559 353.12L398.729 179.887C403.136 166.305 395.702 151.688 382.148 147.279C368.594 142.869 354.008 150.312 349.607 163.894L293.438 337.12C289.031 350.702 296.464 365.32 310.018 369.729C323.572 374.145 338.159 366.702 342.559 353.12Z" fill="url(#paint2_linear_2751_124)" fill-opacity="0.8"/>
<path fill-rule="evenodd" clip-rule="evenodd" d="M342.559 353.12L398.729 179.887C403.136 166.305 395.702 151.688 382.148 147.279C368.594 142.869 354.008 150.312 349.607 163.894L293.438 337.12C289.031 350.702 296.464 365.32 310.018 369.729C323.572 374.145 338.159 366.702 342.559 353.12Z" fill="url(#paint3_radial_2751_124)"/>
<path fill-rule="evenodd" clip-rule="evenodd" d="M342.559 353.12L398.729 179.887C403.136 166.305 395.702 151.688 382.148 147.279C368.594 142.869 354.008 150.312 349.607 163.894L293.438 337.12C289.031 350.702 296.464 365.32 310.018 369.729C323.572 374.145 338.159 366.702 342.559 353.12Z" fill="url(#paint4_radial_2751_124)"/>
<path fill-rule="evenodd" clip-rule="evenodd" d="M342.559 353.12L398.729 179.887C403.136 166.305 395.702 151.688 382.148 147.279C368.594 142.869 354.008 150.312 349.607 163.894L293.438 337.12C289.031 350.702 296.464 365.32 310.018 369.729C323.572 374.145 338.159 366.702 342.559 353.12Z" fill="url(#paint5_radial_2751_124)"/>
<path fill-rule="evenodd" clip-rule="evenodd" d="M249.993 250.445C256.368 250.445 261.068 254.185 265.076 258.877C269.529 264.099 273.086 270.572 276.107 277.445C289.686 308.298 292.23 346.895 292.23 346.895C293.204 361.146 305.542 371.917 319.762 370.941C333.983 369.965 344.732 357.594 343.758 343.351C343.758 343.351 340.344 295.142 323.365 256.558C308.805 223.47 284.149 198.685 249.999 198.685C215.85 198.685 191.194 223.47 176.634 256.558C159.647 295.142 156.241 343.351 156.241 343.351C155.267 357.601 166.016 369.965 180.236 370.941C194.457 371.917 206.795 361.146 207.769 346.895C207.769 346.895 210.312 308.304 223.892 277.445C226.913 270.578 230.469 264.099 234.922 258.877C238.924 254.185 243.624 250.445 249.993 250.445Z" fill="#E63CFE"/>
<path fill-rule="evenodd" clip-rule="evenodd" d="M249.993 250.445C256.368 250.445 261.068 254.185 265.076 258.877C269.529 264.099 273.086 270.572 276.107 277.445C289.686 308.298 292.23 346.895 292.23 346.895C293.204 361.146 305.542 371.917 319.762 370.941C333.983 369.965 344.732 357.594 343.758 343.351C343.758 343.351 340.344 295.142 323.365 256.558C308.805 223.47 284.149 198.685 249.999 198.685C215.85 198.685 191.194 223.47 176.634 256.558C159.647 295.142 156.241 343.351 156.241 343.351C155.267 357.601 166.016 369.965 180.236 370.941C194.457 371.917 206.795 361.146 207.769 346.895C207.769 346.895 210.312 308.304 223.892 277.445C226.913 270.578 230.469 264.099 234.922 258.877C238.924 254.185 243.624 250.445 249.993 250.445Z" fill="url(#paint6_radial_2751_124)"/>
<path fill-rule="evenodd" clip-rule="evenodd" d="M249.993 250.445C256.368 250.445 261.068 254.185 265.076 258.877C269.529 264.099 273.086 270.572 276.107 277.445C289.686 308.298 292.23 346.895 292.23 346.895C293.204 361.146 305.542 371.917 319.762 370.941C333.983 369.965 344.732 357.594 343.758 343.351C343.758 343.351 340.344 295.142 323.365 256.558C308.805 223.47 284.149 198.685 249.999 198.685C215.85 198.685 191.194 223.47 176.634 256.558C159.647 295.142 156.241 343.351 156.241 343.351C155.267 357.601 166.016 369.965 180.236 370.941C194.457 371.917 206.795 361.146 207.769 346.895C207.769 346.895 210.312 308.304 223.892 277.445C226.913 270.578 230.469 264.099 234.922 258.877C238.924 254.185 243.624 250.445 249.993 250.445Z" fill="url(#paint7_radial_2751_124)"/>
<path fill-rule="evenodd" clip-rule="evenodd" d="M249.993 250.445C256.368 250.445 261.068 254.185 265.076 258.877C269.529 264.099 273.086 270.572 276.107 277.445C289.686 308.298 292.23 346.895 292.23 346.895C293.204 361.146 305.542 371.917 319.762 370.941C333.983 369.965 344.732 357.594 343.758 343.351C343.758 343.351 340.344 295.142 323.365 256.558C308.805 223.47 284.149 198.685 249.999 198.685C215.85 198.685 191.194 223.47 176.634 256.558C159.647 295.142 156.241 343.351 156.241 343.351C155.267 357.601 166.016 369.965 180.236 370.941C194.457 371.917 206.795 361.146 207.769 346.895C207.769 346.895 210.312 308.304 223.892 277.445C226.913 270.578 230.469 264.099 234.922 258.877C238.924 254.185 243.624 250.445 249.993 250.445Z" fill="url(#paint8_radial_2751_124)"/>
<path fill-rule="evenodd" clip-rule="evenodd" d="M249.993 250.445C256.368 250.445 261.068 254.185 265.076 258.877C269.529 264.099 273.086 270.572 276.107 277.445C289.686 308.298 292.23 346.895 292.23 346.895C293.204 361.146 305.542 371.917 319.762 370.941C333.983 369.965 344.732 357.594 343.758 343.351C343.758 343.351 340.344 295.142 323.365 256.558C308.805 223.47 284.149 198.685 249.999 198.685C215.85 198.685 191.194 223.47 176.634 256.558C159.647 295.142 156.241 343.351 156.241 343.351C155.267 357.601 166.016 369.965 180.236 370.941C194.457 371.917 206.795 361.146 207.769 346.895C207.769 346.895 210.312 308.304 223.892 277.445C226.913 270.578 230.469 264.099 234.922 258.877C238.924 254.185 243.624 250.445 249.993 250.445Z" fill="url(#paint9_radial_2751_124)"/>
<path fill-rule="evenodd" clip-rule="evenodd" d="M249.993 250.445C256.368 250.445 261.068 254.185 265.076 258.877C269.529 264.099 273.086 270.572 276.107 277.445C289.686 308.298 292.23 346.895 292.23 346.895C293.204 361.146 305.542 371.917 319.762 370.941C333.983 369.965 344.732 357.594 343.758 343.351C343.758 343.351 340.344 295.142 323.365 256.558C308.805 223.47 284.149 198.685 249.999 198.685C215.85 198.685 191.194 223.47 176.634 256.558C159.647 295.142 156.241 343.351 156.241 343.351C155.267 357.601 166.016 369.965 180.236 370.941C194.457 371.917 206.795 361.146 207.769 346.895C207.769 346.895 210.312 308.304 223.892 277.445C226.913 270.578 230.469 264.099 234.922 258.877C238.924 254.185 243.624 250.445 249.993 250.445Z" fill="url(#paint10_radial_2751_124)"/>
<path fill-rule="evenodd" clip-rule="evenodd" d="M249.993 250.445C256.368 250.445 261.068 254.185 265.076 258.877C269.529 264.099 273.086 270.572 276.107 277.445C289.686 308.298 292.23 346.895 292.23 346.895C293.204 361.146 305.542 371.917 319.762 370.941C333.983 369.965 344.732 357.594 343.758 343.351C343.758 343.351 340.344 295.142 323.365 256.558C308.805 223.47 284.149 198.685 249.999 198.685C215.85 198.685 191.194 223.47 176.634 256.558C159.647 295.142 156.241 343.351 156.241 343.351C155.267 357.601 166.016 369.965 180.236 370.941C194.457 371.917 206.795 361.146 207.769 346.895C207.769 346.895 210.312 308.304 223.892 277.445C226.913 270.578 230.469 264.099 234.922 258.877C238.924 254.185 243.624 250.445 249.993 250.445Z" fill="url(#paint11_radial_2751_124)"/>
<path fill-rule="evenodd" clip-rule="evenodd" d="M249.993 250.445C256.368 250.445 261.068 254.185 265.076 258.877C269.529 264.099 273.086 270.572 276.107 277.445C289.686 308.298 292.23 346.895 292.23 346.895C293.204 361.146 305.542 371.917 319.762 370.941C333.983 369.965 344.732 357.594 343.758 343.351C343.758 343.351 340.344 295.142 323.365 256.558C308.805 223.47 284.149 198.685 249.999 198.685C215.85 198.685 191.194 223.47 176.634 256.558C159.647 295.142 156.241 343.351 156.241 343.351C155.267 357.601 166.016 369.965 180.236 370.941C194.457 371.917 206.795 361.146 207.769 346.895C207.769 346.895 210.312 308.304 223.892 277.445C226.913 270.578 230.469 264.099 234.922 258.877C238.924 254.185 243.624 250.445 249.993 250.445Z" fill="url(#paint12_radial_2751_124)"/>
<path fill-rule="evenodd" clip-rule="evenodd" d="M249.993 250.445C256.368 250.445 261.068 254.185 265.076 258.877C269.529 264.099 273.086 270.572 276.107 277.445C289.686 308.298 292.23 346.895 292.23 346.895C293.204 361.146 305.542 371.917 319.762 370.941C333.983 369.965 344.732 357.594 343.758 343.351C343.758 343.351 340.344 295.142 323.365 256.558C308.805 223.47 284.149 198.685 249.999 198.685C215.85 198.685 191.194 223.47 176.634 256.558C159.647 295.142 156.241 343.351 156.241 343.351C155.267 357.601 166.016 369.965 180.236 370.941C194.457 371.917 206.795 361.146 207.769 346.895C207.769 346.895 210.312 308.304 223.892 277.445C226.913 270.578 230.469 264.099 234.922 258.877C238.924 254.185 243.624 250.445 249.993 250.445Z" fill="url(#paint13_radial_2751_124)"/>
<path fill-rule="evenodd" clip-rule="evenodd" d="M206.561 337.12L150.391 163.888C145.991 150.306 131.411 142.856 117.851 147.272C104.297 151.688 96.8629 166.299 101.27 179.881L157.44 353.114C161.846 366.696 176.427 374.146 189.98 369.729C203.534 365.313 210.968 350.703 206.561 337.12Z" fill="url(#paint14_linear_2751_124)"/>
<path fill-rule="evenodd" clip-rule="evenodd" d="M206.561 337.12L150.391 163.888C145.991 150.306 131.411 142.856 117.851 147.272C104.297 151.688 96.8629 166.299 101.27 179.881L157.44 353.114C161.846 366.696 176.427 374.146 189.98 369.729C203.534 365.313 210.968 350.703 206.561 337.12Z" fill="url(#paint15_radial_2751_124)"/>
<path fill-rule="evenodd" clip-rule="evenodd" d="M206.561 337.12L150.391 163.888C145.991 150.306 131.411 142.856 117.851 147.272C104.297 151.688 96.8629 166.299 101.27 179.881L157.44 353.114C161.846 366.696 176.427 374.146 189.98 369.729C203.534 365.313 210.968 350.703 206.561 337.12Z" fill="url(#paint16_linear_2751_124)"/>
<path fill-rule="evenodd" clip-rule="evenodd" d="M206.561 337.12L150.391 163.888C145.991 150.306 131.411 142.856 117.851 147.272C104.297 151.688 96.8629 166.299 101.27 179.881L157.44 353.114C161.846 366.696 176.427 374.146 189.98 369.729C203.534 365.313 210.968 350.703 206.561 337.12Z" fill="url(#paint17_radial_2751_124)"/>
<path fill-rule="evenodd" clip-rule="evenodd" d="M206.561 337.12L150.391 163.888C145.991 150.306 131.411 142.856 117.851 147.272C104.297 151.688 96.8629 166.299 101.27 179.881L157.44 353.114C161.846 366.696 176.427 374.146 189.98 369.729C203.534 365.313 210.968 350.703 206.561 337.12Z" fill="url(#paint18_radial_2751_124)"/>
</g>
<defs>
<linearGradient id="paint0_linear_2751_124" x1="428.772" y1="89.2529" x2="344.662" y2="361.232" gradientUnits="userSpaceOnUse">
<stop stop-color="#4A4EFA"/>
<stop offset="0.548576" stop-color="#E63CFE"/>
</linearGradient>
<linearGradient id="paint1_linear_2751_124" x1="323.131" y1="246.04" x2="370.78" y2="261.464" gradientUnits="userSpaceOnUse">
<stop offset="0.160046" stop-color="#4A4EFA"/>
<stop offset="0.946031" stop-color="#4A4EFA" stop-opacity="0"/>
</linearGradient>
<linearGradient id="paint2_linear_2751_124" x1="330.352" y1="223.171" x2="360.291" y2="232.747" gradientUnits="userSpaceOnUse">
<stop stop-color="#39FBBB"/>
<stop offset="1" stop-color="#39FBBB" stop-opacity="0"/>
</linearGradient>
<radialGradient id="paint3_radial_2751_124" cx="0" cy="0" r="1" gradientUnits="userSpaceOnUse" gradientTransform="translate(319.289 286.52) rotate(-64.165) scale(156.114 156.114)">
<stop offset="0.832168" stop-color="#4A4EFA" stop-opacity="0"/>
<stop offset="1" stop-color="#4A4EFA" stop-opacity="0.75"/>
</radialGradient>
<radialGradient id="paint4_radial_2751_124" cx="0" cy="0" r="1" gradientUnits="userSpaceOnUse" gradientTransform="translate(316.262 276.215) scale(34.8051 74.4347)">
<stop offset="0.169047" stop-color="#11417A"/>
<stop offset="0.926198" stop-color="#4069D4" stop-opacity="0"/>
</radialGradient>
<radialGradient id="paint5_radial_2751_124" cx="0" cy="0" r="1" gradientUnits="userSpaceOnUse" gradientTransform="translate(356.549 371.002) rotate(-90) scale(115.122 55.1736)">
<stop offset="0.34895" stop-color="#E63CFE"/>
<stop offset="1" stop-color="#E63CFE" stop-opacity="0"/>
</radialGradient>
<radialGradient id="paint6_radial_2751_124" cx="0" cy="0" r="1" gradientUnits="userSpaceOnUse" gradientTransform="translate(241.246 289.545) rotate(-85.7675) scale(118.609 105.317)">
<stop stop-color="#39FBBB" stop-opacity="0.5"/>
<stop offset="0.688731" stop-color="#39FBBB"/>
<stop offset="1" stop-color="#39FBBB" stop-opacity="0"/>
</radialGradient>
<radialGradient id="paint7_radial_2751_124" cx="0" cy="0" r="1" gradientUnits="userSpaceOnUse" gradientTransform="translate(410.239 356.324) rotate(-122.629) scale(284.35 69.1779)">
<stop stop-color="#E63CFE"/>
<stop offset="1" stop-color="#E63CFE" stop-opacity="0"/>
</radialGradient>
<radialGradient id="paint8_radial_2751_124" cx="0" cy="0" r="1" gradientUnits="userSpaceOnUse" gradientTransform="translate(245.959 326.153) rotate(-85.0198) scale(127.951 110.065)">
<stop offset="0.556793" stop-color="#4A4EFA"/>
<stop offset="0.934777" stop-color="#4A4EFA" stop-opacity="0"/>
</radialGradient>
<radialGradient id="paint9_radial_2751_124" cx="0" cy="0" r="1" gradientUnits="userSpaceOnUse" gradientTransform="translate(211.263 364.879) rotate(-68.6367) scale(133.623 79.7425)">
<stop offset="0.61345" stop-color="#E63CFE"/>
<stop offset="1" stop-color="#E63CFE" stop-opacity="0"/>
</radialGradient>
<radialGradient id="paint10_radial_2751_124" cx="0" cy="0" r="1" gradientUnits="userSpaceOnUse" gradientTransform="translate(340.551 274.388) rotate(176.233) scale(165.91 419.419)">
<stop offset="0.813918" stop-color="#4A98D0" stop-opacity="0"/>
<stop offset="0.972647" stop-color="#11417A"/>
</radialGradient>
<radialGradient id="paint11_radial_2751_124" cx="0" cy="0" r="1" gradientUnits="userSpaceOnUse" gradientTransform="translate(201.298 371.002) rotate(-90) scale(118.906 98.6593)">
<stop offset="0.457769" stop-color="#FFAE3C"/>
<stop offset="1" stop-color="#FFAE3C" stop-opacity="0"/>
</radialGradient>
<radialGradient id="paint12_radial_2751_124" cx="0" cy="0" r="1" gradientUnits="userSpaceOnUse" gradientTransform="translate(345.484 371.002) rotate(-90) scale(107.177 107.177)">
<stop offset="0.191715" stop-color="#E63CFE"/>
<stop offset="1" stop-color="#E63CFE" stop-opacity="0"/>
</radialGradient>
<radialGradient id="paint13_radial_2751_124" cx="0" cy="0" r="1" gradientUnits="userSpaceOnUse" gradientTransform="translate(282.606 371.002) rotate(-90) scale(80.6503 38.3105)">
<stop offset="0.173611" stop-color="#FFAE3C"/>
<stop offset="1" stop-color="#FFAE3C" stop-opacity="0"/>
</radialGradient>
<linearGradient id="paint14_linear_2751_124" x1="91.1746" y1="156.812" x2="163.696" y2="382.437" gradientUnits="userSpaceOnUse">
<stop offset="0.169527" stop-color="#E63CFE"/>
<stop offset="0.708644" stop-color="#FFAE3C"/>
</linearGradient>
<radialGradient id="paint15_radial_2751_124" cx="0" cy="0" r="1" gradientUnits="userSpaceOnUse" gradientTransform="translate(150.543 214.769) rotate(161.042) scale(36.1832 176.685)">
<stop offset="0.120383" stop-color="#4A4EFA"/>
<stop offset="1" stop-color="#4A4EFA" stop-opacity="0"/>
</radialGradient>
<linearGradient id="paint16_linear_2751_124" x1="182.366" y1="262.266" x2="172.21" y2="265.591" gradientUnits="userSpaceOnUse">
<stop stop-color="#E63CFE" stop-opacity="0.33"/>
<stop offset="1" stop-color="#E63CFE" stop-opacity="0"/>
</linearGradient>
<radialGradient id="paint17_radial_2751_124" cx="0" cy="0" r="1" gradientUnits="userSpaceOnUse" gradientTransform="translate(207.831 371.002) rotate(-90) scale(116.251 126.996)">
<stop offset="0.465389" stop-color="#FFAE3C"/>
<stop offset="0.92565" stop-color="#FFAE3C" stop-opacity="0"/>
</radialGradient>
<radialGradient id="paint18_radial_2751_124" cx="0" cy="0" r="1" gradientUnits="userSpaceOnUse" gradientTransform="translate(207.831 371.002) rotate(-90) scale(254.362 254.362)">
<stop offset="0.843756" stop-color="#E63CFE" stop-opacity="0"/>
<stop offset="1" stop-color="#E63CFE"/>
</radialGradient>
<clipPath id="clip0_2751_124">
<rect width="300" height="226.071" fill="white" transform="translate(100 146)"/>
</clipPath>
</defs>
</svg>
